<svg width="24" height="24" viewBox="0 0 24 24" fill="none" xmlns="http://www.w3.org/2000/svg">
<path d="M13.3102 20.4002C11.9879 20.6067 10.6355 20.4981 9.36308 20.0832C8.09069 19.6683 6.93425 18.9588 5.98791 18.0124C5.04156 17.0661 4.33205 15.9096 3.91713 14.6372C3.50221 13.3648 3.39361 12.0125 3.60016 10.6902C3.07889 9.69867 2.88841 8.56644 3.05657 7.45897C3.22472 6.3515 3.74269 5.32684 4.53477 4.53477C5.32684 3.74269 6.3515 3.22472 7.45897 3.05657C8.56644 2.88841 9.69867 3.07889 10.6902 3.60016C12.0125 3.39361 13.3648 3.50221 14.6372 3.91713C15.9096 4.33205 17.0661 5.04156 18.0124 5.98791C18.9588 6.93425 19.6683 8.09069 20.0832 9.36308C20.4981 10.6355 20.6067 11.9879 20.4002 13.3102C20.9214 14.3016 21.1119 15.4339 20.9437 16.5413C20.7756 17.6488 20.2576 18.6735 19.4655 19.4655C18.6735 20.2576 17.6488 20.7756 16.5413 20.9437C15.4339 21.1119 14.3016 20.9214 13.3102 20.4002ZM12.0522 17.1562H12.0122C14.8842 17.1562 16.3152 15.7702 16.3152 13.9132C16.3152 12.7152 15.7642 11.4422 13.5892 10.9552L11.6062 10.5152C10.8512 10.3432 9.98416 10.1152 9.98416 9.40016C9.98416 8.68516 10.6042 8.18716 11.7082 8.18716C13.9382 8.18716 13.7352 9.71516 14.8392 9.71516C15.4152 9.71516 15.9322 9.37316 15.9322 8.78516C15.9322 7.41516 13.7352 6.38516 11.8762 6.38516C9.85516 6.38516 7.70316 7.24416 7.70316 9.52916C7.70316 10.6272 8.09716 11.7992 10.2632 12.3422L12.9522 13.0132C13.7682 13.2152 13.9702 13.6722 13.9702 14.0852C13.9702 14.7722 13.2862 15.4432 12.0522 15.4432C9.63516 15.4432 9.97416 13.5862 8.67816 13.5862C8.09816 13.5862 7.67516 13.9842 7.67516 14.5572C7.67516 15.6712 9.02716 17.1552 12.0522 17.1552V17.1562Z" fill="#373737"/>
<rect x="0.5" y="0.5" width="23" height="23" stroke="black"/>
</svg>
