<svg width="46" height="35" viewBox="0 0 46 35" fill="none" xmlns="http://www.w3.org/2000/svg">
<path d="M41.5425 3.69738C44.1175 6.43238 45.5 9.49988 45.5 14.4724C45.5 23.2224 39.3575 31.0649 30.425 34.9424L28.1925 31.4974C36.53 26.9874 38.16 21.1349 38.81 17.4449C37.4675 18.1399 35.71 18.3824 33.9875 18.2224C29.4775 17.8049 25.9225 14.1024 25.9225 9.49988C25.9225 7.17924 26.8444 4.95364 28.4853 3.31269C30.1263 1.67175 32.3519 0.749878 34.6725 0.749878C37.355 0.749878 39.92 1.97488 41.5425 3.69738ZM16.5425 3.69738C19.1175 6.43238 20.5 9.49988 20.5 14.4724C20.5 23.2224 14.3575 31.0649 5.425 34.9424L3.1925 31.4974C11.53 26.9874 13.16 21.1349 13.81 17.4449C12.4675 18.1399 10.71 18.3824 8.9875 18.2224C4.4775 17.8049 0.922501 14.1024 0.922501 9.49988C0.922501 7.17924 1.84437 4.95364 3.48531 3.31269C5.12626 1.67175 7.35186 0.749878 9.6725 0.749878C12.355 0.749878 14.92 1.97488 16.5425 3.69738Z" fill="#BCC1C7"/>
</svg>
